<svg xmlns="http://www.w3.org/2000/svg" xmlns:xlink="http://www.w3.org/1999/xlink" width="1080" zoomAndPan="magnify" viewBox="0 0 810 809.999993" height="1080" preserveAspectRatio="xMidYMid meet" version="1.0"><defs><clipPath id="5b600d93a8"><path d="M 243 243 L 567 243 L 567 567 L 243 567 Z M 243 243 " clip-rule="nonzero"/></clipPath></defs><path fill="#231f20" d="M 486.933594 331.789062 L 503.8125 317.480469 C 502.523438 316.027344 501.1875 314.59375 499.832031 313.199219 L 484.105469 328.71875 C 485.019531 329.671875 485.960938 330.691406 486.933594 331.789062 " fill-opacity="1" fill-rule="nonzero"/><path fill="#231f20" d="M 380.46875 297.867188 L 375.757812 276.332031 C 373.859375 276.765625 371.964844 277.242188 370.085938 277.75 L 376.402344 298.886719 C 377.8125 298.507812 379.160156 298.167969 380.46875 297.867188 " fill-opacity="1" fill-rule="nonzero"/><path fill="#231f20" d="M 443.859375 278.902344 C 442.003906 278.335938 440.125 277.792969 438.234375 277.300781 L 433.035156 298.769531 C 434.371094 299.125 435.707031 299.5 437.027344 299.90625 L 443.859375 278.902344 " fill-opacity="1" fill-rule="nonzero"/><path fill="#231f20" d="M 512.628906 382.292969 L 534.355469 378.417969 C 533.957031 376.507812 533.515625 374.601562 533.039062 372.714844 L 511.679688 378.203125 C 512.027344 379.5625 512.339844 380.933594 512.628906 382.292969 " fill-opacity="1" fill-rule="nonzero"/><path fill="#231f20" d="M 478.96875 486.722656 L 493.304688 503.574219 C 494.433594 502.554688 495.546875 501.523438 496.621094 500.488281 L 496.671875 500.445312 L 496.699219 500.414062 L 496.921875 500.203125 L 496.980469 500.148438 L 497.296875 499.832031 L 497.324219 499.808594 L 497.378906 499.75 L 497.394531 499.742188 L 497.464844 499.671875 L 497.519531 499.613281 L 497.570312 499.570312 L 482.03125 483.839844 C 481.046875 484.792969 480.027344 485.761719 478.96875 486.722656 " fill-opacity="1" fill-rule="nonzero"/><path fill="#231f20" d="M 313.949219 309.332031 L 313.886719 309.382812 L 313.859375 309.414062 L 313.722656 309.53125 L 313.703125 309.550781 L 313.707031 309.558594 L 313.652344 309.613281 L 313.535156 309.71875 L 313.410156 309.84375 L 313.398438 309.851562 L 313.265625 309.976562 L 313.214844 310.035156 L 313.097656 310.140625 L 313.058594 310.191406 L 312.859375 310.359375 L 312.867188 310.363281 L 312.847656 310.390625 L 312.785156 310.449219 L 312.761719 310.46875 L 312.671875 310.558594 L 312.609375 310.613281 L 312.441406 310.785156 L 312.367188 310.851562 L 312.285156 310.933594 C 311.914062 311.292969 311.550781 311.660156 311.183594 312.027344 L 327.316406 327.171875 C 328.3125 326.183594 329.320312 325.214844 330.332031 324.277344 L 315.390625 307.976562 C 314.910156 308.425781 314.429688 308.871094 313.949219 309.332031 " fill-opacity="1" fill-rule="nonzero"/><path fill="#231f20" d="M 307.121094 494.191406 C 308.433594 495.625 309.777344 497.042969 311.160156 498.429688 L 326.5 482.5 C 325.515625 481.5 324.539062 480.464844 323.578125 479.40625 L 307.121094 494.191406 " fill-opacity="1" fill-rule="nonzero"/><path fill="#231f20" d="M 509.722656 439.089844 L 530.535156 446.46875 C 531.066406 444.863281 531.574219 443.210938 532.050781 441.554688 L 532.074219 441.476562 L 532.109375 441.347656 L 532.125 441.285156 L 532.152344 441.203125 L 532.152344 441.199219 L 532.164062 441.144531 C 532.195312 441.050781 532.21875 440.96875 532.238281 440.878906 L 510.945312 435.078125 C 510.582031 436.382812 510.171875 437.703125 509.722656 439.089844 " fill-opacity="1" fill-rule="nonzero"/><path fill="#231f20" d="M 299.796875 372.503906 L 278.839844 365.554688 C 278.472656 366.710938 278.121094 367.882812 277.78125 369.058594 L 277.6875 369.390625 L 277.566406 369.816406 L 277.488281 370.09375 C 277.394531 370.445312 277.296875 370.800781 277.199219 371.164062 L 298.617188 376.542969 C 298.976562 375.222656 299.367188 373.882812 299.796875 372.503906 " fill-opacity="1" fill-rule="nonzero"/><path fill="#231f20" d="M 297.386719 428.902344 L 275.84375 433.613281 L 275.851562 433.652344 L 275.839844 433.667969 C 275.851562 433.765625 276.878906 437.976562 277.230469 439.304688 L 298.390625 433.050781 C 298.015625 431.625 297.683594 430.246094 297.386719 428.902344 " fill-opacity="1" fill-rule="nonzero"/><path fill="#231f20" d="M 404.84375 289.066406 C 405.851562 289.066406 406.863281 289.078125 407.875 289.101562 L 408.550781 273.121094 L 408.464844 273.117188 C 406.464844 273.070312 404.59375 273.058594 402.703125 273.085938 L 403.195312 289.078125 C 403.746094 289.070312 404.292969 289.066406 404.84375 289.066406 " fill-opacity="1" fill-rule="nonzero"/><path fill="#231f20" d="M 349.625 303.058594 L 342.242188 288.867188 C 340.6875 289.703125 339.136719 290.582031 337.617188 291.484375 L 337.441406 291.570312 L 337.417969 291.59375 L 337.421875 291.601562 L 337.324219 291.65625 L 337.316406 291.671875 L 337.25 291.703125 L 337.175781 291.75 L 337.160156 291.757812 L 345.578125 305.359375 C 346.90625 304.570312 348.261719 303.796875 349.625 303.058594 " fill-opacity="1" fill-rule="nonzero"/><path fill="#231f20" d="M 306.050781 344.230469 L 292.582031 335.582031 C 292.078125 336.394531 291.582031 337.210938 291.09375 338.042969 L 291.023438 338.164062 L 290.957031 338.261719 L 290.960938 338.261719 L 290.832031 338.472656 L 290.835938 338.476562 L 290.65625 338.773438 C 290.300781 339.390625 289.953125 340.011719 289.613281 340.617188 L 303.679688 348.238281 C 304.4375 346.882812 305.230469 345.550781 306.050781 344.230469 " fill-opacity="1" fill-rule="nonzero"/><path fill="#231f20" d="M 288.816406 401.59375 L 272.839844 400.8125 L 272.839844 400.839844 L 272.832031 401.003906 L 272.828125 401.042969 L 272.828125 401.199219 L 272.820312 401.433594 L 272.816406 401.527344 L 272.8125 401.609375 C 272.769531 403.328125 272.75 405.007812 272.773438 406.667969 L 288.765625 406.269531 C 288.75 404.710938 288.769531 403.140625 288.816406 401.59375 " fill-opacity="1" fill-rule="nonzero"/><path fill="#231f20" d="M 302.410156 459.921875 L 288.175781 467.226562 C 289.089844 468.941406 290.046875 470.648438 291.035156 472.324219 L 304.691406 463.988281 C 303.90625 462.648438 303.140625 461.285156 302.410156 459.921875 " fill-opacity="1" fill-rule="nonzero"/><path fill="#231f20" d="M 503.066406 467.472656 L 516.417969 476.28125 C 516.472656 476.199219 516.527344 476.117188 516.582031 476.023438 L 516.617188 475.96875 L 516.699219 475.835938 L 516.75 475.761719 L 516.890625 475.550781 C 517.738281 474.191406 518.613281 472.746094 519.453125 471.285156 L 505.484375 463.492188 C 504.703125 464.832031 503.898438 466.164062 503.066406 467.472656 " fill-opacity="1" fill-rule="nonzero"/><path fill="#231f20" d="M 537.074219 409.347656 C 537.121094 407.960938 537.140625 406.679688 537.140625 405.410156 L 521.078125 405.621094 C 521.066406 407.140625 521.035156 408.664062 520.972656 410.175781 L 520.960938 410.371094 L 537 411.335938 L 537.007812 411.148438 L 537.023438 410.917969 L 537.027344 410.867188 L 537.03125 410.75 L 537.027344 410.75 L 537.035156 410.542969 L 537.039062 410.519531 L 537.03125 410.519531 L 537.046875 410.28125 L 537.050781 410.101562 L 537.054688 409.972656 L 537.058594 409.9375 L 537.058594 409.789062 L 537.074219 409.589844 L 537.074219 409.460938 L 537.078125 409.347656 L 537.074219 409.347656 " fill-opacity="1" fill-rule="nonzero"/><path fill="#231f20" d="M 508.128906 351.828125 L 522.453125 344.707031 C 521.558594 342.980469 520.621094 341.257812 519.652344 339.570312 L 505.894531 347.738281 C 506.667969 349.082031 507.414062 350.457031 508.128906 351.828125 " fill-opacity="1" fill-rule="nonzero"/><path fill="#231f20" d="M 476.660156 294.199219 L 476.597656 294.164062 L 476.582031 294.152344 L 476.503906 294.097656 L 476.421875 294.050781 L 476.355469 294.003906 L 476.316406 293.980469 L 476.265625 293.945312 L 476.253906 293.941406 L 476.207031 293.910156 L 476.15625 293.878906 L 476.125 293.847656 L 475.988281 293.765625 L 475.761719 293.625 L 475.53125 293.476562 C 474.261719 292.675781 472.972656 291.890625 471.679688 291.128906 L 463.800781 305.058594 C 465.136719 305.839844 466.460938 306.65625 467.765625 307.503906 L 476.660156 294.199219 " fill-opacity="1" fill-rule="nonzero"/><g clip-path="url(#5b600d93a8)"><path fill="#231f20" d="M 404.949219 551.21875 C 324.304688 551.21875 258.6875 485.605469 258.6875 404.953125 C 258.6875 324.300781 324.304688 258.683594 404.949219 258.683594 C 485.605469 258.683594 551.21875 324.300781 551.21875 404.953125 C 551.21875 485.605469 485.605469 551.21875 404.949219 551.21875 Z M 404.949219 242.964844 C 315.488281 242.964844 242.964844 315.484375 242.964844 404.953125 C 242.964844 494.414062 315.488281 566.945312 404.949219 566.945312 C 494.414062 566.945312 566.941406 494.414062 566.941406 404.953125 C 566.941406 315.484375 494.414062 242.964844 404.949219 242.964844 " fill-opacity="1" fill-rule="nonzero"/></g><path fill="#231f20" d="M 305.96875 483.832031 L 301.328125 487.472656 L 301.476562 487.660156 L 301.480469 487.667969 L 301.539062 487.742188 L 301.5625 487.773438 L 301.570312 487.773438 L 301.65625 487.882812 L 301.660156 487.882812 L 301.6875 487.921875 L 301.691406 487.933594 L 301.71875 487.964844 L 301.804688 488.070312 L 301.8125 488.078125 L 301.832031 488.113281 L 301.867188 488.148438 C 302.089844 488.433594 302.320312 488.714844 302.550781 489.011719 L 307.132812 485.296875 C 306.746094 484.816406 306.351562 484.324219 305.96875 483.832031 " fill-opacity="1" fill-rule="nonzero"/><path fill="#231f20" d="M 309.535156 488.1875 L 305.066406 492.027344 C 305.238281 492.226562 305.402344 492.417969 305.574219 492.609375 L 305.574219 492.613281 L 305.609375 492.648438 L 305.636719 492.683594 L 305.6875 492.75 L 305.703125 492.761719 L 305.722656 492.785156 L 305.738281 492.800781 L 305.757812 492.824219 L 305.777344 492.851562 L 305.789062 492.863281 L 305.871094 492.949219 L 305.882812 492.960938 L 305.902344 492.996094 L 305.914062 493.003906 L 305.949219 493.042969 L 305.957031 493.050781 L 305.988281 493.09375 L 305.992188 493.09375 L 306.027344 493.136719 L 306.050781 493.15625 L 306.066406 493.175781 L 306.085938 493.195312 L 306.097656 493.210938 L 306.125 493.242188 L 306.128906 493.253906 C 306.207031 493.332031 306.28125 493.417969 306.359375 493.507812 L 310.773438 489.605469 C 310.359375 489.132812 309.949219 488.664062 309.535156 488.1875 " fill-opacity="1" fill-rule="nonzero"/><path fill="#231f20" d="M 296.460938 469.875 L 291.375 472.863281 C 291.59375 473.230469 291.8125 473.605469 292.03125 473.96875 L 292.03125 473.976562 L 292.0625 474.019531 L 292.066406 474.019531 L 292.105469 474.09375 L 292.140625 474.148438 L 292.140625 474.15625 L 292.171875 474.203125 C 292.238281 474.316406 292.3125 474.429688 292.382812 474.554688 L 297.421875 471.484375 C 297.097656 470.953125 296.777344 470.417969 296.460938 469.875 " fill-opacity="1" fill-rule="nonzero"/><path fill="#231f20" d="M 299.417969 474.664062 L 294.472656 477.882812 C 294.773438 478.34375 295.078125 478.800781 295.382812 479.257812 L 295.390625 479.265625 L 295.40625 479.304688 L 295.554688 479.519531 L 300.453125 476.230469 C 300.105469 475.714844 299.761719 475.191406 299.417969 474.664062 " fill-opacity="1" fill-rule="nonzero"/><path fill="#231f20" d="M 302.589844 479.320312 L 297.789062 482.75 C 298.054688 483.113281 298.308594 483.460938 298.570312 483.832031 L 298.597656 483.855469 L 298.605469 483.875 L 298.625 483.902344 C 298.734375 484.050781 298.84375 484.195312 298.945312 484.34375 L 303.691406 480.839844 C 303.320312 480.339844 302.953125 479.832031 302.589844 479.320312 " fill-opacity="1" fill-rule="nonzero"/><path fill="#231f20" d="M 289.589844 455.394531 L 284.113281 457.582031 L 284.203125 457.8125 L 284.203125 457.816406 L 284.21875 457.863281 L 284.230469 457.878906 L 284.253906 457.933594 L 284.257812 457.949219 L 284.308594 458.074219 L 284.3125 458.078125 L 284.328125 458.125 L 284.351562 458.171875 L 284.398438 458.296875 L 284.40625 458.316406 L 284.414062 458.328125 L 284.433594 458.371094 L 284.4375 458.390625 C 284.578125 458.726562 284.714844 459.0625 284.851562 459.40625 L 290.296875 457.128906 C 290.0625 456.554688 289.824219 455.976562 289.589844 455.394531 " fill-opacity="1" fill-rule="nonzero"/><path fill="#231f20" d="M 291.796875 460.574219 L 286.421875 463.007812 C 286.523438 463.242188 286.636719 463.472656 286.742188 463.710938 L 286.746094 463.710938 L 286.761719 463.753906 L 286.765625 463.761719 L 286.789062 463.800781 L 286.816406 463.871094 L 286.824219 463.882812 L 286.84375 463.921875 L 286.855469 463.953125 L 286.867188 463.96875 L 286.875 463.996094 L 286.882812 464.019531 L 286.9375 464.128906 L 286.9375 464.132812 L 286.957031 464.164062 L 286.960938 464.175781 L 286.984375 464.226562 L 286.988281 464.238281 L 287.011719 464.285156 L 287.019531 464.292969 L 287.035156 464.339844 L 287.042969 464.355469 L 287.074219 464.421875 L 287.085938 464.441406 L 287.097656 464.46875 L 287.101562 464.476562 C 287.144531 464.585938 287.199219 464.683594 287.25 464.796875 L 292.582031 462.285156 C 292.3125 461.714844 292.058594 461.144531 291.796875 460.574219 " fill-opacity="1" fill-rule="nonzero"/><path fill="#231f20" d="M 285.875 444.761719 L 280.222656 446.453125 C 280.382812 446.984375 280.546875 447.507812 280.710938 448.035156 L 280.710938 448.046875 L 280.722656 448.082031 L 280.804688 448.335938 L 286.425781 446.558594 C 286.234375 445.960938 286.050781 445.359375 285.875 444.761719 " fill-opacity="1" fill-rule="nonzero"/><path fill="#231f20" d="M 284.375 439.332031 L 278.65625 440.773438 C 278.757812 441.191406 278.867188 441.605469 278.972656 442.015625 L 278.972656 442.023438 L 279.011719 442.136719 L 279.015625 442.164062 L 279.023438 442.1875 L 279.03125 442.230469 L 279.035156 442.238281 L 279.042969 442.28125 C 279.085938 442.410156 279.113281 442.539062 279.152344 442.675781 L 284.847656 441.15625 C 284.679688 440.542969 284.527344 439.941406 284.375 439.332031 " fill-opacity="1" fill-rule="nonzero"/><path fill="#231f20" d="M 287.613281 450.117188 L 282.046875 452.0625 C 282.191406 452.480469 282.335938 452.894531 282.488281 453.3125 L 282.488281 453.320312 L 282.503906 453.355469 L 282.515625 453.371094 L 282.519531 453.40625 C 282.585938 453.570312 282.648438 453.742188 282.707031 453.910156 L 288.242188 451.886719 C 288.027344 451.300781 287.816406 450.710938 287.613281 450.117188 " fill-opacity="1" fill-rule="nonzero"/><path fill="#231f20" d="M 280.722656 424.085938 L 274.921875 425.105469 L 274.964844 425.347656 L 274.964844 425.351562 L 274.96875 425.382812 L 274.972656 425.417969 L 274.976562 425.445312 L 274.988281 425.484375 L 274.988281 425.492188 L 275.007812 425.621094 L 275.011719 425.628906 L 275.019531 425.671875 L 275.023438 425.683594 L 275.03125 425.730469 L 275.050781 425.859375 L 275.054688 425.875 L 275.066406 425.929688 L 275.074219 425.953125 C 275.136719 426.320312 275.203125 426.683594 275.273438 427.039062 L 281.0625 425.925781 C 280.945312 425.3125 280.832031 424.699219 280.722656 424.085938 " fill-opacity="1" fill-rule="nonzero"/><path fill="#231f20" d="M 279.867188 418.507812 L 274.023438 419.28125 C 274.082031 419.714844 274.140625 420.148438 274.203125 420.589844 L 274.203125 420.59375 L 274.210938 420.625 L 274.21875 420.6875 C 274.238281 420.863281 274.269531 421.042969 274.289062 421.222656 L 280.125 420.375 C 280.035156 419.75 279.949219 419.132812 279.867188 418.507812 " fill-opacity="1" fill-rule="nonzero"/><path fill="#231f20" d="M 276.515625 432.800781 L 282.246094 431.429688 C 282.105469 430.828125 281.964844 430.214844 281.824219 429.605469 L 276.070312 430.890625 C 276.128906 431.136719 276.1875 431.386719 276.242188 431.636719 L 276.25 431.683594 L 276.253906 431.691406 L 276.261719 431.730469 L 276.285156 431.804688 L 276.289062 431.835938 L 276.296875 431.863281 L 276.300781 431.890625 L 276.300781 431.914062 L 276.308594 431.949219 L 276.316406 431.964844 L 276.347656 432.082031 L 276.347656 432.097656 L 276.355469 432.136719 L 276.363281 432.152344 L 276.371094 432.195312 L 276.371094 432.203125 L 276.382812 432.257812 L 276.386719 432.265625 L 276.398438 432.316406 L 276.40625 432.335938 L 276.410156 432.371094 L 276.417969 432.394531 L 276.425781 432.414062 L 276.433594 432.457031 L 276.433594 432.464844 C 276.460938 432.582031 276.488281 432.6875 276.515625 432.800781 " fill-opacity="1" fill-rule="nonzero"/><path fill="#231f20" d="M 279.261719 412.910156 L 273.390625 413.414062 C 273.4375 413.964844 273.484375 414.515625 273.535156 415.058594 L 273.535156 415.070312 L 273.550781 415.09375 C 273.558594 415.199219 273.5625 415.289062 273.566406 415.371094 L 279.4375 414.777344 C 279.378906 414.164062 279.316406 413.535156 279.261719 412.910156 " fill-opacity="1" fill-rule="nonzero"/><path fill="#231f20" d="M 278.90625 407.292969 L 273.015625 407.527344 C 273.035156 407.964844 273.050781 408.390625 273.074219 408.816406 L 273.074219 408.820312 L 273.082031 408.878906 L 273.082031 408.992188 L 273.085938 409.019531 L 273.089844 409.042969 L 273.089844 409.09375 C 273.097656 409.226562 273.101562 409.355469 273.113281 409.492188 L 278.996094 409.160156 C 278.960938 408.539062 278.933594 407.917969 278.90625 407.292969 " fill-opacity="1" fill-rule="nonzero"/><path fill="#231f20" d="M 281.398438 380.144531 L 275.617188 378.980469 C 275.5 379.523438 275.402344 380.066406 275.300781 380.609375 L 275.292969 380.613281 L 275.289062 380.65625 C 275.273438 380.742188 275.261719 380.828125 275.242188 380.921875 L 281.039062 381.992188 C 281.152344 381.378906 281.269531 380.769531 281.398438 380.144531 " fill-opacity="1" fill-rule="nonzero"/><path fill="#231f20" d="M 279.175781 396.890625 L 273.285156 396.507812 C 273.269531 396.765625 273.257812 397.019531 273.242188 397.28125 L 273.238281 397.324219 L 273.238281 397.375 L 273.230469 397.453125 L 273.230469 397.507812 L 273.226562 397.53125 L 273.222656 397.5625 L 273.222656 397.59375 L 273.21875 397.609375 L 273.214844 397.730469 L 273.214844 397.742188 L 273.210938 397.773438 L 273.210938 397.800781 L 273.207031 397.847656 L 273.207031 397.914062 L 273.203125 397.921875 L 273.199219 397.96875 L 273.199219 397.996094 L 273.195312 398.027344 L 273.195312 398.125 C 273.191406 398.234375 273.179688 398.347656 273.175781 398.472656 L 279.066406 398.765625 C 279.09375 398.136719 279.132812 397.511719 279.175781 396.890625 " fill-opacity="1" fill-rule="nonzero"/><path fill="#231f20" d="M 282.191406 376.480469 C 282.335938 375.871094 282.480469 375.261719 282.632812 374.65625 L 276.910156 373.242188 C 276.800781 373.648438 276.703125 374.066406 276.601562 374.480469 L 276.601562 374.492188 L 276.582031 374.601562 L 276.570312 374.628906 L 276.550781 374.6875 L 276.550781 374.707031 L 276.539062 374.75 L 276.542969 374.75 C 276.511719 374.878906 276.480469 375.015625 276.449219 375.144531 L 282.191406 376.480469 " fill-opacity="1" fill-rule="nonzero"/><path fill="#231f20" d="M 280.40625 385.691406 L 274.578125 384.792969 C 274.515625 385.226562 274.449219 385.660156 274.382812 386.105469 L 274.375 386.140625 L 274.375 386.183594 C 274.34375 386.375 274.316406 386.554688 274.292969 386.738281 L 280.132812 387.550781 C 280.222656 386.9375 280.308594 386.316406 280.40625 385.691406 " fill-opacity="1" fill-rule="nonzero"/><path fill="#231f20" d="M 279.664062 391.273438 L 273.804688 390.632812 L 273.78125 390.871094 L 273.78125 390.882812 L 273.773438 390.914062 L 273.769531 390.953125 L 273.765625 390.976562 L 273.765625 391.015625 L 273.761719 391.019531 L 273.75 391.167969 L 273.742188 391.207031 L 273.742188 391.246094 L 273.738281 391.261719 L 273.722656 391.394531 L 273.722656 391.414062 L 273.71875 391.433594 L 273.710938 391.476562 L 273.710938 391.484375 C 273.675781 391.863281 273.636719 392.222656 273.601562 392.59375 L 279.472656 393.15625 C 279.53125 392.523438 279.597656 391.902344 279.664062 391.273438 " fill-opacity="1" fill-rule="nonzero"/><path fill="#231f20" d="M 292.046875 348.597656 L 286.691406 346.117188 C 286.460938 346.617188 286.234375 347.125 286.007812 347.621094 L 286.003906 347.632812 L 285.988281 347.667969 L 285.878906 347.910156 L 291.261719 350.304688 C 291.523438 349.734375 291.777344 349.164062 292.046875 348.597656 " fill-opacity="1" fill-rule="nonzero"/><path fill="#231f20" d="M 289.789062 353.761719 L 284.332031 351.523438 C 284.164062 351.933594 284.003906 352.335938 283.839844 352.75 L 283.839844 352.753906 L 283.828125 352.78125 L 283.8125 352.804688 L 283.804688 352.84375 C 283.734375 353.007812 283.671875 353.179688 283.601562 353.347656 L 289.089844 355.5 C 289.320312 354.917969 289.550781 354.339844 289.789062 353.761719 " fill-opacity="1" fill-rule="nonzero"/><path fill="#231f20" d="M 287.765625 359.023438 L 282.21875 357.027344 L 282.136719 357.257812 L 282.136719 357.265625 L 282.121094 357.304688 L 282.109375 357.335938 L 282.101562 357.355469 L 282.089844 357.382812 L 282.085938 357.398438 L 282.042969 357.519531 L 282.042969 357.53125 L 282.023438 357.574219 L 282.019531 357.578125 L 282.003906 357.617188 L 282.003906 357.625 L 281.964844 357.746094 L 281.953125 357.765625 L 281.945312 357.792969 L 281.933594 357.824219 L 281.929688 357.835938 C 281.808594 358.1875 281.691406 358.53125 281.566406 358.882812 L 287.144531 360.789062 C 287.347656 360.195312 287.554688 359.609375 287.765625 359.023438 " fill-opacity="1" fill-rule="nonzero"/><path fill="#231f20" d="M 285.984375 364.359375 L 280.351562 362.613281 C 280.277344 362.867188 280.203125 363.109375 280.125 363.355469 L 280.109375 363.402344 L 280.097656 363.449219 L 280.074219 363.519531 L 280.0625 363.550781 L 280.0625 363.574219 L 280.050781 363.605469 L 280.042969 363.628906 L 280.035156 363.664062 L 280.023438 363.683594 L 279.996094 363.789062 L 279.992188 363.792969 L 279.980469 363.847656 L 279.976562 363.859375 L 279.960938 363.902344 L 279.957031 363.917969 L 279.941406 363.964844 L 279.941406 363.972656 L 279.925781 364.023438 L 279.921875 364.035156 L 279.914062 364.074219 L 279.90625 364.09375 L 279.882812 364.15625 L 279.878906 364.171875 C 279.851562 364.277344 279.816406 364.386719 279.78125 364.5 L 285.441406 366.15625 C 285.621094 365.558594 285.796875 364.960938 285.984375 364.359375 " fill-opacity="1" fill-rule="nonzero"/><path fill="#231f20" d="M 294.523438 343.546875 L 289.289062 340.832031 C 289.089844 341.210938 288.898438 341.585938 288.703125 341.96875 L 288.671875 342.023438 L 288.671875 342.03125 L 288.648438 342.082031 L 288.640625 342.097656 L 288.625 342.125 L 288.609375 342.164062 L 288.601562 342.171875 L 288.585938 342.210938 C 288.523438 342.335938 288.464844 342.457031 288.402344 342.574219 L 293.671875 345.214844 C 293.949219 344.65625 294.238281 344.097656 294.523438 343.546875 " fill-opacity="1" fill-rule="nonzero"/><path fill="#231f20" d="M 299.917969 334.648438 L 295.003906 331.386719 C 294.859375 331.609375 294.722656 331.816406 294.578125 332.03125 L 294.578125 332.035156 L 294.550781 332.078125 L 294.546875 332.085938 L 294.523438 332.125 L 294.484375 332.183594 L 294.464844 332.203125 L 294.453125 332.238281 L 294.433594 332.257812 L 294.421875 332.273438 L 294.40625 332.296875 L 294.390625 332.324219 L 294.332031 332.417969 L 294.320312 332.425781 L 294.296875 332.472656 L 294.285156 332.480469 L 294.269531 332.515625 L 294.230469 332.570312 L 294.226562 332.578125 L 294.195312 332.621094 L 294.191406 332.640625 L 294.167969 332.667969 L 294.136719 332.71875 L 294.121094 332.738281 L 294.117188 332.75 C 294.054688 332.84375 293.988281 332.9375 293.929688 333.039062 L 298.894531 336.21875 C 299.230469 335.695312 299.570312 335.171875 299.917969 334.648438 " fill-opacity="1" fill-rule="nonzero"/><path fill="#231f20" d="M 303.132812 330.023438 L 298.363281 326.554688 L 298.21875 326.746094 L 298.214844 326.757812 L 298.1875 326.789062 L 298.175781 326.8125 L 298.152344 326.832031 L 298.136719 326.859375 L 298.132812 326.867188 L 298.058594 326.984375 L 298.050781 326.984375 L 298.019531 327.019531 L 298.015625 327.023438 L 297.996094 327.0625 L 297.988281 327.066406 L 297.914062 327.171875 L 297.902344 327.1875 L 297.886719 327.214844 L 297.867188 327.234375 L 297.855469 327.257812 C 297.640625 327.546875 297.429688 327.847656 297.21875 328.144531 L 302.042969 331.546875 C 302.398438 331.035156 302.765625 330.519531 303.132812 330.023438 " fill-opacity="1" fill-rule="nonzero"/><path fill="#231f20" d="M 313.957031 317.066406 L 309.695312 312.984375 C 309.398438 313.296875 309.101562 313.609375 308.8125 313.925781 L 308.808594 313.925781 L 308.769531 313.96875 L 308.769531 313.972656 L 308.726562 314.007812 L 308.710938 314.027344 L 308.691406 314.046875 L 308.664062 314.078125 L 308.625 314.117188 L 308.625 314.121094 C 308.535156 314.214844 308.4375 314.316406 308.347656 314.417969 L 312.667969 318.429688 C 313.09375 317.96875 313.527344 317.515625 313.957031 317.066406 " fill-opacity="1" fill-rule="nonzero"/><path fill="#231f20" d="M 306.542969 325.539062 L 301.9375 321.859375 C 301.660156 322.207031 301.390625 322.554688 301.113281 322.902344 L 301.109375 322.902344 L 301.089844 322.933594 L 301.078125 322.945312 L 301.058594 322.980469 C 300.945312 323.125 300.832031 323.261719 300.722656 323.402344 L 305.386719 327.019531 C 305.765625 326.519531 306.15625 326.03125 306.542969 325.539062 " fill-opacity="1" fill-rule="nonzero"/><path fill="#231f20" d="M 310.15625 321.21875 L 305.71875 317.335938 C 305.359375 317.75 304.992188 318.171875 304.640625 318.589844 L 304.628906 318.589844 L 304.605469 318.625 L 304.433594 318.828125 L 308.9375 322.636719 C 309.339844 322.160156 309.75 321.691406 310.15625 321.21875 " fill-opacity="1" fill-rule="nonzero"/><path fill="#231f20" d="M 335.253906 292.945312 L 335.199219 292.976562 L 335.148438 293.007812 L 335.132812 293.019531 L 335.074219 293.054688 L 335.066406 293.058594 L 335.023438 293.089844 C 334.90625 293.160156 334.792969 293.230469 334.679688 293.304688 L 337.832031 298.285156 C 338.363281 297.949219 338.894531 297.617188 339.425781 297.292969 L 336.34375 292.265625 C 335.976562 292.484375 335.617188 292.714844 335.253906 292.945312 " fill-opacity="1" fill-rule="nonzero"/><path fill="#231f20" d="M 330.027344 296.386719 L 330.019531 296.390625 L 329.984375 296.414062 L 329.769531 296.566406 L 333.136719 301.402344 C 333.65625 301.042969 334.167969 300.695312 334.691406 300.339844 L 331.386719 295.453125 C 330.929688 295.765625 330.476562 296.074219 330.027344 296.386719 " fill-opacity="1" fill-rule="nonzero"/><path fill="#231f20" d="M 330.09375 303.589844 L 326.578125 298.863281 C 326.222656 299.121094 325.875 299.390625 325.519531 299.652344 L 325.515625 299.660156 L 325.480469 299.683594 L 325.464844 299.691406 L 325.441406 299.71875 C 325.296875 299.824219 325.152344 299.933594 325.003906 300.042969 L 328.59375 304.71875 C 329.089844 304.347656 329.585938 303.964844 330.09375 303.589844 " fill-opacity="1" fill-rule="nonzero"/><path fill="#231f20" d="M 321.355469 310.707031 L 317.433594 306.300781 C 317.242188 306.46875 317.054688 306.644531 316.859375 306.808594 L 316.855469 306.808594 L 316.820312 306.847656 L 316.816406 306.851562 L 316.785156 306.878906 L 316.726562 306.9375 L 316.710938 306.945312 L 316.6875 306.972656 L 316.664062 306.988281 L 316.644531 307.003906 L 316.625 307.027344 L 316.609375 307.039062 L 316.523438 307.117188 L 316.511719 307.121094 L 316.484375 307.160156 L 316.476562 307.164062 L 316.4375 307.195312 L 316.421875 307.203125 L 316.382812 307.238281 L 316.382812 307.242188 L 316.339844 307.285156 L 316.320312 307.300781 L 316.304688 307.316406 L 316.28125 307.335938 L 316.265625 307.359375 L 316.238281 307.375 L 316.230469 307.382812 C 316.144531 307.460938 316.0625 307.539062 315.976562 307.617188 L 319.960938 311.960938 C 320.421875 311.535156 320.886719 311.117188 321.355469 310.707031 " fill-opacity="1" fill-rule="nonzero"/><path fill="#231f20" d="M 325.644531 307.050781 L 321.921875 302.480469 L 321.734375 302.636719 L 321.726562 302.648438 L 321.691406 302.664062 L 321.652344 302.695312 L 321.628906 302.722656 L 321.621094 302.722656 L 321.515625 302.8125 L 321.511719 302.820312 L 321.472656 302.847656 L 321.464844 302.851562 L 321.4375 302.878906 L 321.4375 302.882812 L 321.328125 302.960938 L 321.316406 302.984375 L 321.296875 302.992188 L 321.269531 303.007812 L 321.257812 303.027344 C 320.972656 303.257812 320.691406 303.496094 320.410156 303.730469 L 324.195312 308.253906 C 324.675781 307.84375 325.160156 307.449219 325.644531 307.050781 " fill-opacity="1" fill-rule="nonzero"/><path fill="#231f20" d="M 351.269531 284.828125 L 351.257812 284.828125 L 351.21875 284.84375 L 351.199219 284.847656 L 351.171875 284.871094 L 351.140625 284.878906 L 351.128906 284.882812 L 351.007812 284.941406 L 351 284.941406 L 350.960938 284.957031 L 350.914062 284.976562 L 350.90625 284.976562 L 350.785156 285.03125 L 350.769531 285.035156 L 350.710938 285.058594 L 350.691406 285.070312 C 350.359375 285.210938 350.023438 285.355469 349.683594 285.507812 L 352.054688 290.902344 C 352.625 290.65625 353.203125 290.414062 353.785156 290.167969 L 351.496094 284.734375 L 351.269531 284.828125 " fill-opacity="1" fill-rule="nonzero"/><path fill="#231f20" d="M 348.640625 292.46875 L 346.109375 287.136719 C 345.878906 287.25 345.648438 287.359375 345.421875 287.472656 L 345.375 287.492188 L 345.363281 287.492188 L 345.324219 287.519531 L 345.257812 287.554688 L 345.234375 287.5625 L 345.203125 287.574219 L 345.183594 287.585938 L 345.105469 287.621094 L 345.003906 287.664062 L 344.957031 287.695312 L 344.949219 287.699219 L 344.90625 287.726562 L 344.886719 287.730469 L 344.839844 287.753906 L 344.835938 287.753906 L 344.789062 287.773438 L 344.765625 287.78125 L 344.714844 287.8125 L 344.6875 287.824219 L 344.660156 287.84375 L 344.65625 287.84375 C 344.546875 287.890625 344.449219 287.945312 344.34375 287.992188 L 346.949219 293.277344 C 347.511719 293.007812 348.078125 292.734375 348.640625 292.46875 " fill-opacity="1" fill-rule="nonzero"/><path fill="#231f20" d="M 366.964844 279.3125 L 366.960938 279.3125 L 366.898438 279.335938 L 366.84375 279.351562 L 366.820312 279.351562 L 366.800781 279.363281 L 366.753906 279.375 L 366.746094 279.378906 L 366.703125 279.386719 C 366.574219 279.425781 366.445312 279.46875 366.3125 279.503906 L 367.9375 285.171875 C 368.539062 284.996094 369.144531 284.828125 369.746094 284.664062 L 368.207031 278.976562 C 367.789062 279.089844 367.371094 279.203125 366.964844 279.3125 " fill-opacity="1" fill-rule="nonzero"/><path fill="#231f20" d="M 360.976562 281.160156 L 360.972656 281.160156 L 360.933594 281.167969 L 360.679688 281.257812 L 362.5625 286.847656 C 363.15625 286.644531 363.75 286.449219 364.347656 286.257812 L 362.550781 280.644531 C 362.023438 280.808594 361.496094 280.984375 360.976562 281.160156 " fill-opacity="1" fill-rule="nonzero"/><path fill="#231f20" d="M 359.019531 288.09375 L 356.976562 282.558594 C 356.5625 282.71875 356.152344 282.871094 355.734375 283.027344 L 355.730469 283.027344 L 355.695312 283.042969 L 355.675781 283.046875 L 355.644531 283.066406 C 355.480469 283.128906 355.308594 283.191406 355.136719 283.257812 L 357.269531 288.757812 C 357.847656 288.53125 358.433594 288.3125 359.019531 288.09375 " fill-opacity="1" fill-rule="nonzero"/><path fill="#231f20" d="M 390.917969 279.832031 L 390.203125 273.976562 C 389.765625 274.027344 389.328125 274.082031 388.890625 274.140625 L 388.886719 274.140625 L 388.847656 274.152344 L 388.796875 274.152344 C 388.613281 274.183594 388.4375 274.203125 388.253906 274.226562 L 389.058594 280.066406 C 389.679688 279.980469 390.296875 279.898438 390.917969 279.832031 " fill-opacity="1" fill-rule="nonzero"/><path fill="#231f20" d="M 396.527344 279.273438 L 396.074219 273.394531 C 395.527344 273.433594 394.972656 273.484375 394.425781 273.527344 L 394.417969 273.527344 L 394.375 273.53125 C 394.289062 273.542969 394.203125 273.554688 394.117188 273.558594 L 394.652344 279.425781 C 395.277344 279.375 395.902344 279.320312 396.527344 279.273438 " fill-opacity="1" fill-rule="nonzero"/><path fill="#231f20" d="M 402.148438 278.964844 L 401.960938 273.070312 C 401.527344 273.082031 401.101562 273.105469 400.671875 273.117188 L 400.613281 273.117188 L 400.609375 273.121094 L 400.539062 273.121094 L 400.496094 273.128906 L 400.40625 273.128906 C 400.265625 273.132812 400.128906 273.144531 399.996094 273.148438 L 400.273438 279.039062 C 400.898438 279.011719 401.527344 278.988281 402.148438 278.964844 " fill-opacity="1" fill-rule="nonzero"/><path fill="#231f20" d="M 379.8125 281.683594 L 378.578125 275.925781 C 378.328125 275.976562 378.082031 276.027344 377.832031 276.085938 L 377.828125 276.085938 L 377.777344 276.089844 L 377.769531 276.089844 L 377.726562 276.105469 L 377.652344 276.125 L 377.628906 276.132812 L 377.601562 276.132812 L 377.570312 276.140625 L 377.546875 276.144531 L 377.515625 276.15625 L 377.492188 276.15625 L 377.386719 276.179688 L 377.371094 276.183594 L 377.328125 276.199219 L 377.320312 276.199219 L 377.265625 276.210938 L 377.253906 276.210938 L 377.199219 276.222656 L 377.144531 276.242188 L 377.117188 276.242188 L 377.09375 276.246094 L 377.039062 276.261719 L 377.007812 276.265625 L 377 276.269531 C 376.882812 276.296875 376.777344 276.316406 376.660156 276.34375 L 377.980469 282.089844 C 378.585938 281.957031 379.195312 281.824219 379.8125 281.683594 " fill-opacity="1" fill-rule="nonzero"/><path fill="#231f20" d="M 385.347656 280.632812 L 384.371094 274.820312 L 384.136719 274.859375 L 384.125 274.859375 L 384.078125 274.867188 L 384.054688 274.875 L 384.03125 274.875 L 383.988281 274.882812 L 383.988281 274.890625 L 383.851562 274.902344 L 383.84375 274.902344 L 383.800781 274.917969 L 383.792969 274.914062 L 383.75 274.925781 L 383.746094 274.925781 L 383.617188 274.949219 L 383.597656 274.953125 L 383.5625 274.957031 L 383.542969 274.960938 L 383.515625 274.964844 C 383.15625 275.03125 382.796875 275.09375 382.433594 275.15625 L 383.496094 280.957031 C 384.109375 280.84375 384.730469 280.738281 385.347656 280.632812 " fill-opacity="1" fill-rule="nonzero"/><path fill="#231f20" d="M 502.71875 484.667969 L 507.371094 488.289062 C 507.484375 488.144531 507.589844 488.003906 507.703125 487.859375 L 507.722656 487.832031 L 507.738281 487.816406 L 507.761719 487.785156 L 507.765625 487.785156 C 508.03125 487.4375 508.300781 487.085938 508.566406 486.722656 L 503.863281 483.171875 C 503.484375 483.675781 503.105469 484.175781 502.71875 484.667969 " fill-opacity="1" fill-rule="nonzero"/><path fill="#231f20" d="M 506.078125 480.144531 L 510.886719 483.550781 L 511.039062 483.347656 L 511.066406 483.304688 C 511.378906 482.855469 511.699219 482.398438 512.015625 481.949219 L 507.148438 478.601562 C 506.796875 479.121094 506.441406 479.636719 506.078125 480.144531 " fill-opacity="1" fill-rule="nonzero"/><path fill="#231f20" d="M 509.230469 475.476562 L 514.1875 478.664062 C 514.261719 478.554688 514.335938 478.441406 514.410156 478.328125 L 514.410156 478.320312 L 514.433594 478.289062 L 514.441406 478.273438 L 514.460938 478.246094 L 514.472656 478.214844 L 514.492188 478.203125 L 514.519531 478.152344 L 514.523438 478.144531 L 514.550781 478.101562 L 514.550781 478.097656 C 514.785156 477.738281 515.011719 477.375 515.242188 477.007812 L 510.234375 473.898438 C 509.902344 474.425781 509.570312 474.949219 509.230469 475.476562 " fill-opacity="1" fill-rule="nonzero"/><path fill="#231f20" d="M 495.414062 493.242188 L 499.730469 497.257812 L 499.964844 497.003906 L 499.992188 496.96875 L 500.011719 496.957031 L 500.03125 496.933594 L 500.050781 496.914062 L 500.066406 496.894531 L 500.105469 496.855469 L 500.140625 496.8125 L 500.148438 496.800781 L 500.183594 496.773438 L 500.1875 496.761719 L 500.230469 496.71875 L 500.308594 496.636719 L 500.324219 496.617188 L 500.363281 496.574219 L 500.378906 496.550781 L 500.402344 496.53125 L 500.417969 496.515625 L 500.46875 496.457031 L 500.539062 496.386719 C 500.707031 496.191406 500.886719 496.003906 501.058594 495.816406 L 496.683594 491.859375 C 496.265625 492.320312 495.839844 492.785156 495.414062 493.242188 " fill-opacity="1" fill-rule="nonzero"/><path fill="#231f20" d="M 499.164062 489.03125 L 503.652344 492.859375 C 503.886719 492.578125 504.128906 492.304688 504.359375 492.023438 L 504.375 492.003906 L 504.390625 491.980469 L 504.410156 491.957031 L 504.417969 491.949219 L 504.507812 491.839844 L 504.511719 491.835938 L 504.539062 491.804688 L 504.539062 491.800781 L 504.570312 491.761719 L 504.574219 491.761719 L 504.664062 491.652344 L 504.667969 491.640625 L 504.703125 491.601562 L 504.753906 491.550781 L 504.757812 491.542969 L 504.914062 491.355469 L 500.371094 487.597656 C 499.96875 488.074219 499.570312 488.558594 499.164062 489.03125 " fill-opacity="1" fill-rule="nonzero"/><path fill="#231f20" d="M 524.207031 447.070312 L 529.757812 449.046875 C 529.804688 448.917969 529.859375 448.792969 529.898438 448.664062 L 529.898438 448.660156 L 529.910156 448.617188 L 529.917969 448.605469 L 529.929688 448.566406 L 529.941406 448.542969 L 529.964844 448.464844 L 529.96875 448.460938 L 529.988281 448.410156 L 529.988281 448.40625 C 530.132812 448.003906 530.265625 447.597656 530.40625 447.1875 L 524.824219 445.296875 C 524.621094 445.890625 524.417969 446.472656 524.207031 447.070312 " fill-opacity="1" fill-rule="nonzero"/><path fill="#231f20" d="M 519.960938 457.503906 L 525.320312 459.960938 C 525.398438 459.800781 525.472656 459.628906 525.550781 459.472656 L 525.558594 459.445312 L 525.566406 459.429688 L 525.585938 459.382812 L 525.589844 459.382812 C 525.773438 458.984375 525.949219 458.582031 526.128906 458.175781 L 520.734375 455.785156 C 520.480469 456.367188 520.222656 456.933594 519.960938 457.503906 " fill-opacity="1" fill-rule="nonzero"/><path fill="#231f20" d="M 522.203125 452.332031 L 527.664062 454.550781 L 527.765625 454.308594 L 527.78125 454.269531 L 527.78125 454.265625 C 527.984375 453.757812 528.191406 453.242188 528.386719 452.730469 L 522.894531 450.59375 C 522.667969 451.171875 522.4375 451.757812 522.203125 452.332031 " fill-opacity="1" fill-rule="nonzero"/><path fill="#231f20" d="M 514.808594 467.519531 L 519.929688 470.445312 C 519.980469 470.347656 520.039062 470.246094 520.097656 470.144531 L 520.117188 470.101562 L 520.132812 470.085938 L 520.140625 470.066406 L 520.164062 470.035156 L 520.171875 470.015625 L 520.199219 469.96875 L 520.199219 469.964844 L 520.230469 469.917969 L 520.230469 469.910156 L 520.257812 469.867188 L 520.261719 469.851562 L 520.285156 469.816406 L 520.289062 469.804688 L 520.347656 469.703125 L 520.359375 469.683594 L 520.375 469.660156 L 520.390625 469.632812 L 520.398438 469.613281 L 520.410156 469.585938 L 520.421875 469.5625 L 520.464844 469.496094 L 520.488281 469.460938 L 520.488281 469.453125 L 520.511719 469.410156 L 520.519531 469.402344 C 520.640625 469.183594 520.761719 468.960938 520.886719 468.734375 L 515.726562 465.882812 C 515.429688 466.429688 515.121094 466.972656 514.808594 467.519531 " fill-opacity="1" fill-rule="nonzero"/><path fill="#231f20" d="M 517.5 462.566406 L 522.742188 465.265625 C 522.910156 464.941406 523.070312 464.613281 523.238281 464.285156 L 523.246094 464.277344 L 523.261719 464.242188 L 523.34375 464.078125 L 523.34375 464.074219 L 523.367188 464.027344 L 523.386719 463.996094 L 523.386719 463.988281 L 523.453125 463.859375 L 523.453125 463.855469 L 523.476562 463.824219 L 523.484375 463.800781 L 523.492188 463.78125 L 523.515625 463.730469 L 523.625 463.511719 L 518.34375 460.890625 C 518.066406 461.457031 517.785156 462.011719 517.5 462.566406 " fill-opacity="1" fill-rule="nonzero"/><path fill="#231f20" d="M 526.3125 436.785156 L 532.007812 438.304688 C 532.042969 438.195312 532.074219 438.082031 532.097656 437.96875 L 532.097656 437.960938 L 532.109375 437.929688 L 532.113281 437.902344 L 532.121094 437.871094 L 532.132812 437.847656 L 532.136719 437.824219 L 532.152344 437.765625 L 532.164062 437.71875 L 532.164062 437.703125 L 532.175781 437.652344 L 532.183594 437.652344 L 532.191406 437.617188 L 532.195312 437.582031 L 532.226562 437.480469 L 532.234375 437.464844 L 532.238281 437.421875 L 532.246094 437.398438 L 532.25 437.382812 L 532.261719 437.34375 L 532.269531 437.316406 L 532.292969 437.210938 L 532.300781 437.195312 L 532.308594 437.148438 L 532.308594 437.144531 C 532.375 436.898438 532.4375 436.648438 532.503906 436.402344 L 526.78125 434.96875 C 526.628906 435.578125 526.46875 436.183594 526.3125 436.785156 " fill-opacity="1" fill-rule="nonzero"/><path fill="#231f20" d="M 530.140625 414.609375 L 536.011719 415.09375 C 536.023438 414.957031 536.035156 414.816406 536.042969 414.6875 L 536.042969 414.660156 L 536.050781 414.628906 L 536.050781 414.5625 L 536.0625 414.539062 L 536.0625 414.480469 L 536.070312 414.417969 C 536.097656 413.992188 536.132812 413.5625 536.160156 413.132812 L 530.273438 412.742188 C 530.230469 413.367188 530.1875 413.988281 530.140625 414.609375 " fill-opacity="1" fill-rule="nonzero"/><path fill="#231f20" d="M 529.550781 420.214844 L 535.40625 420.957031 C 535.414062 420.867188 535.421875 420.78125 535.433594 420.699219 L 535.4375 420.667969 L 535.441406 420.644531 C 535.507812 420.101562 535.570312 419.558594 535.636719 419.003906 L 529.773438 418.347656 C 529.707031 418.972656 529.628906 419.589844 529.550781 420.214844 " fill-opacity="1" fill-rule="nonzero"/><path fill="#231f20" d="M 528.71875 425.78125 L 534.53125 426.789062 C 534.5625 426.609375 534.589844 426.429688 534.617188 426.25 L 534.617188 426.222656 L 534.625 426.203125 L 534.636719 426.164062 L 534.636719 426.15625 C 534.710938 425.722656 534.78125 425.285156 534.847656 424.851562 L 529.027344 423.933594 C 528.925781 424.546875 528.828125 425.167969 528.71875 425.78125 " fill-opacity="1" fill-rule="nonzero"/><path fill="#231f20" d="M 527.636719 431.3125 L 533.398438 432.574219 C 533.472656 432.21875 533.550781 431.859375 533.628906 431.503906 L 533.628906 431.488281 L 533.640625 431.445312 L 533.648438 431.421875 L 533.648438 431.40625 L 533.675781 431.269531 L 533.679688 431.269531 L 533.6875 431.226562 L 533.6875 431.21875 L 533.699219 431.167969 L 533.722656 431.039062 L 533.726562 431.027344 L 533.730469 430.992188 L 533.738281 430.960938 L 533.742188 430.941406 L 533.75 430.898438 L 533.75 430.890625 L 533.800781 430.648438 L 528.023438 429.480469 C 527.902344 430.085938 527.773438 430.703125 527.636719 431.3125 " fill-opacity="1" fill-rule="nonzero"/><path fill="#231f20" d="M 530.898438 404.210938 L 536.789062 404.066406 C 536.789062 403.957031 536.789062 403.835938 536.785156 403.722656 L 536.785156 403.714844 L 536.78125 403.679688 L 536.78125 403.570312 L 536.777344 403.523438 L 536.773438 403.515625 L 536.773438 403.328125 L 536.769531 403.214844 L 536.765625 403.191406 L 536.765625 403.160156 L 536.761719 403.144531 L 536.761719 402.976562 L 536.757812 402.945312 L 536.757812 402.925781 L 536.753906 402.878906 L 536.753906 402.875 C 536.75 402.613281 536.742188 402.359375 536.734375 402.109375 L 530.835938 402.339844 C 530.859375 402.964844 530.882812 403.585938 530.898438 404.210938 " fill-opacity="1" fill-rule="nonzero"/><path fill="#231f20" d="M 530.117188 392.96875 L 535.980469 392.304688 C 535.957031 392.132812 535.9375 391.949219 535.917969 391.769531 L 535.914062 391.738281 L 535.910156 391.714844 L 535.90625 391.683594 L 535.90625 391.675781 C 535.855469 391.234375 535.796875 390.792969 535.738281 390.359375 L 529.898438 391.113281 C 529.976562 391.738281 530.046875 392.351562 530.117188 392.96875 " fill-opacity="1" fill-rule="nonzero"/><path fill="#231f20" d="M 530.632812 398.585938 L 536.519531 398.179688 C 536.492188 397.816406 536.460938 397.453125 536.433594 397.085938 L 536.433594 397.019531 L 536.429688 396.980469 L 536.421875 396.851562 L 536.417969 396.851562 L 536.414062 396.800781 L 536.414062 396.792969 L 536.40625 396.757812 L 536.40625 396.753906 L 536.394531 396.609375 L 536.394531 396.546875 L 536.390625 396.519531 L 536.386719 396.476562 L 536.382812 396.464844 L 536.363281 396.21875 L 530.488281 396.71875 C 530.539062 397.339844 530.59375 397.960938 530.632812 398.585938 " fill-opacity="1" fill-rule="nonzero"/><path fill="#231f20" d="M 533.714844 378.742188 L 527.953125 380.019531 C 528.089844 380.628906 528.222656 381.242188 528.347656 381.851562 L 534.125 380.667969 C 534.097656 380.53125 534.070312 380.402344 534.035156 380.269531 L 534.039062 380.269531 L 534.03125 380.234375 L 534.027344 380.214844 L 534.019531 380.171875 L 534.015625 380.144531 L 533.996094 380.066406 L 533.984375 380.011719 L 533.984375 380.003906 C 533.898438 379.585938 533.804688 379.164062 533.714844 378.742188 " fill-opacity="1" fill-rule="nonzero"/><path fill="#231f20" d="M 529.359375 387.390625 L 535.179688 386.46875 L 535.136719 386.207031 L 535.132812 386.183594 L 535.132812 386.15625 C 535.042969 385.617188 534.957031 385.074219 534.855469 384.527344 L 529.046875 385.542969 C 529.15625 386.15625 529.261719 386.777344 529.359375 387.390625 " fill-opacity="1" fill-rule="nonzero"/><path fill="#231f20" d="M 518.40625 350.773438 L 523.75 348.273438 C 523.691406 348.15625 523.632812 348.027344 523.574219 347.910156 L 523.554688 347.867188 L 523.550781 347.851562 L 523.535156 347.816406 L 523.523438 347.796875 L 523.507812 347.769531 L 523.492188 347.71875 L 523.484375 347.714844 L 523.460938 347.660156 C 523.277344 347.273438 523.09375 346.882812 522.902344 346.5 L 517.597656 349.078125 C 517.875 349.644531 518.148438 350.210938 518.40625 350.773438 " fill-opacity="1" fill-rule="nonzero"/><path fill="#231f20" d="M 520.683594 355.929688 L 526.132812 353.664062 L 526.027344 353.421875 L 526.015625 353.386719 L 526.007812 353.378906 C 525.796875 352.871094 525.582031 352.359375 525.359375 351.859375 L 519.949219 354.191406 C 520.199219 354.773438 520.445312 355.351562 520.683594 355.929688 " fill-opacity="1" fill-rule="nonzero"/><path fill="#231f20" d="M 526.097656 371.921875 L 531.792969 370.410156 C 531.765625 370.296875 531.734375 370.191406 531.707031 370.074219 L 531.691406 370.03125 L 531.679688 369.984375 L 531.675781 369.953125 L 531.664062 369.929688 L 531.652344 369.878906 L 531.652344 369.875 L 531.640625 369.816406 L 531.636719 369.808594 L 531.621094 369.769531 L 531.621094 369.757812 L 531.605469 369.707031 L 531.605469 369.695312 L 531.574219 369.589844 L 531.570312 369.570312 L 531.566406 369.539062 L 531.539062 369.457031 L 531.53125 369.4375 L 531.511719 369.371094 L 531.496094 369.328125 L 531.496094 369.308594 L 531.484375 369.257812 C 531.417969 369.007812 531.347656 368.761719 531.273438 368.515625 L 525.601562 370.109375 C 525.773438 370.714844 525.9375 371.324219 526.097656 371.921875 " fill-opacity="1" fill-rule="nonzero"/><path fill="#231f20" d="M 524.53125 366.511719 L 530.15625 364.746094 C 530.042969 364.398438 529.9375 364.042969 529.820312 363.703125 L 529.820312 363.691406 L 529.804688 363.648438 L 529.792969 363.613281 L 529.75 363.480469 L 529.75 363.476562 L 529.738281 363.433594 L 529.730469 363.429688 L 529.71875 363.386719 L 529.71875 363.378906 L 529.675781 363.253906 L 529.671875 363.242188 L 529.664062 363.207031 L 529.652344 363.1875 L 529.644531 363.15625 L 529.628906 363.117188 L 529.628906 363.109375 L 529.550781 362.875 L 523.953125 364.730469 C 524.148438 365.320312 524.339844 365.917969 524.53125 366.511719 " fill-opacity="1" fill-rule="nonzero"/><path fill="#231f20" d="M 522.726562 361.179688 L 528.269531 359.164062 C 528.203125 358.992188 528.144531 358.820312 528.082031 358.65625 L 528.066406 358.621094 L 528.058594 358.601562 L 528.042969 358.566406 C 527.890625 358.148438 527.734375 357.730469 527.574219 357.328125 L 522.070312 359.414062 C 522.292969 360.003906 522.507812 360.589844 522.726562 361.179688 " fill-opacity="1" fill-rule="nonzero"/><path fill="#231f20" d="M 511.261719 336.527344 L 516.210938 333.3125 C 516.011719 333.003906 515.804688 332.699219 515.601562 332.398438 L 515.574219 332.34375 L 515.566406 332.339844 L 515.550781 332.308594 L 515.472656 332.199219 L 515.472656 332.195312 L 515.445312 332.15625 L 515.441406 332.152344 L 515.421875 332.113281 L 515.417969 332.113281 L 515.339844 332 L 515.339844 331.984375 L 515.3125 331.957031 L 515.300781 331.9375 L 515.292969 331.917969 L 515.265625 331.882812 L 515.261719 331.875 L 515.125 331.667969 L 510.230469 334.957031 C 510.574219 335.480469 510.921875 336.003906 511.261719 336.527344 " fill-opacity="1" fill-rule="nonzero"/><path fill="#231f20" d="M 504.707031 327.367188 L 509.347656 323.730469 L 509.1875 323.519531 L 509.160156 323.484375 L 509.152344 323.484375 C 508.808594 323.050781 508.472656 322.617188 508.121094 322.195312 L 503.539062 325.890625 C 503.933594 326.386719 504.320312 326.875 504.707031 327.367188 " fill-opacity="1" fill-rule="nonzero"/><path fill="#231f20" d="M 514.230469 341.316406 L 519.308594 338.328125 C 519.25 338.222656 519.195312 338.125 519.136719 338.027344 L 519.132812 338.019531 L 519.113281 337.984375 L 519.101562 337.972656 L 519.085938 337.941406 L 519.066406 337.914062 L 519.0625 337.890625 L 519.03125 337.84375 L 519.023438 337.839844 L 519 337.796875 L 518.996094 337.792969 L 518.96875 337.746094 L 518.96875 337.738281 L 518.941406 337.691406 L 518.9375 337.683594 L 518.878906 337.585938 L 518.863281 337.570312 L 518.832031 337.515625 L 518.820312 337.496094 L 518.804688 337.476562 L 518.789062 337.445312 L 518.753906 337.382812 L 518.726562 337.347656 L 518.726562 337.335938 L 518.703125 337.296875 C 518.566406 337.070312 518.433594 336.851562 518.304688 336.636719 L 513.257812 339.703125 C 513.585938 340.242188 513.914062 340.773438 514.230469 341.316406 " fill-opacity="1" fill-rule="nonzero"/><path fill="#231f20" d="M 501.132812 323.019531 L 505.597656 319.167969 C 505.515625 319.066406 505.425781 318.960938 505.332031 318.863281 L 505.300781 318.828125 L 505.296875 318.820312 L 505.25 318.765625 L 505.238281 318.757812 L 505.199219 318.707031 L 505.199219 318.703125 L 505.160156 318.660156 L 505.160156 318.652344 C 504.875 318.335938 504.59375 318.011719 504.308594 317.6875 L 499.894531 321.601562 C 500.308594 322.074219 500.722656 322.546875 501.132812 323.019531 " fill-opacity="1" fill-rule="nonzero"/><path fill="#231f20" d="M 508.085938 331.875 L 512.882812 328.4375 C 512.773438 328.289062 512.671875 328.144531 512.566406 328 L 512.546875 327.972656 L 512.539062 327.960938 L 512.511719 327.921875 L 512.507812 327.921875 C 512.25 327.5625 511.988281 327.203125 511.730469 326.847656 L 506.988281 330.355469 C 507.359375 330.859375 507.722656 331.363281 508.085938 331.875 " fill-opacity="1" fill-rule="nonzero"/><path fill="#231f20" d="M 476.683594 300.675781 L 480.246094 295.980469 C 480.132812 295.902344 480.027344 295.8125 479.917969 295.734375 L 479.917969 295.730469 L 479.882812 295.703125 L 479.871094 295.695312 L 479.839844 295.675781 L 479.820312 295.660156 L 479.800781 295.640625 L 479.753906 295.613281 L 479.703125 295.574219 L 479.703125 295.566406 C 479.359375 295.3125 479.019531 295.054688 478.671875 294.800781 L 475.175781 299.558594 C 475.683594 299.925781 476.183594 300.292969 476.683594 300.675781 " fill-opacity="1" fill-rule="nonzero"/><path fill="#231f20" d="M 481.09375 304.175781 L 484.863281 299.644531 L 484.660156 299.472656 L 484.628906 299.449219 L 484.621094 299.445312 C 484.199219 299.09375 483.769531 298.742188 483.339844 298.398438 L 479.640625 302.992188 C 480.128906 303.382812 480.609375 303.777344 481.09375 304.175781 " fill-opacity="1" fill-rule="nonzero"/><path fill="#231f20" d="M 485.34375 307.871094 L 489.308594 303.519531 C 489.175781 303.394531 489.039062 303.269531 488.90625 303.148438 L 488.878906 303.128906 L 488.867188 303.113281 L 488.835938 303.089844 L 488.832031 303.082031 C 488.507812 302.785156 488.183594 302.5 487.84375 302.203125 L 483.945312 306.621094 C 484.417969 307.035156 484.875 307.453125 485.34375 307.871094 " fill-opacity="1" fill-rule="nonzero"/><path fill="#231f20" d="M 493.328125 315.820312 L 497.667969 311.824219 C 497.589844 311.738281 497.519531 311.65625 497.433594 311.574219 L 497.429688 311.566406 L 497.40625 311.535156 L 497.335938 311.464844 L 497.296875 311.421875 L 497.292969 311.421875 L 497.253906 311.378906 L 497.214844 311.339844 L 497.207031 311.324219 L 497.171875 311.292969 L 497.164062 311.28125 L 497.085938 311.199219 L 497.078125 311.179688 L 497.050781 311.160156 L 497.03125 311.144531 L 497.011719 311.117188 L 496.996094 311.101562 L 496.976562 311.078125 L 496.925781 311.027344 L 496.894531 310.992188 L 496.890625 310.992188 L 496.855469 310.949219 C 496.675781 310.761719 496.503906 310.578125 496.328125 310.390625 L 492.046875 314.445312 C 492.480469 314.90625 492.90625 315.363281 493.328125 315.820312 " fill-opacity="1" fill-rule="nonzero"/><path fill="#231f20" d="M 463.21875 286.847656 C 462.890625 286.695312 462.558594 286.539062 462.226562 286.386719 L 462.203125 286.378906 L 462.179688 286.367188 L 462.148438 286.359375 L 462.136719 286.347656 L 462.011719 286.289062 L 462.007812 286.289062 L 461.96875 286.273438 L 461.964844 286.261719 L 461.921875 286.25 L 461.917969 286.25 L 461.792969 286.195312 L 461.78125 286.1875 L 461.726562 286.15625 L 461.703125 286.148438 L 461.664062 286.136719 L 461.660156 286.128906 L 461.433594 286.03125 L 459.007812 291.402344 C 459.578125 291.671875 460.148438 291.921875 460.714844 292.191406 L 463.21875 286.847656 " fill-opacity="1" fill-rule="nonzero"/><path fill="#231f20" d="M 457.832031 284.457031 C 457.660156 284.390625 457.492188 284.324219 457.332031 284.253906 L 457.300781 284.242188 L 457.242188 284.21875 C 456.828125 284.046875 456.421875 283.886719 456.007812 283.714844 L 453.824219 289.195312 C 454.410156 289.429688 454.984375 289.667969 455.5625 289.90625 L 457.832031 284.457031 " fill-opacity="1" fill-rule="nonzero"/><path fill="#231f20" d="M 468.5 289.472656 C 468.398438 289.421875 468.292969 289.367188 468.195312 289.316406 L 468.1875 289.3125 L 468.15625 289.300781 L 468.140625 289.289062 L 468.109375 289.273438 L 468.058594 289.246094 L 468.011719 289.21875 L 468.007812 289.214844 L 467.960938 289.191406 L 467.945312 289.1875 L 467.910156 289.171875 L 467.890625 289.160156 L 467.855469 289.140625 L 467.84375 289.136719 L 467.75 289.078125 L 467.71875 289.070312 L 467.691406 289.054688 L 467.671875 289.042969 L 467.652344 289.035156 L 467.621094 289.023438 L 467.597656 289.003906 L 467.53125 288.96875 L 467.488281 288.953125 L 467.480469 288.953125 L 467.445312 288.929688 L 467.441406 288.929688 C 467.210938 288.804688 466.984375 288.6875 466.757812 288.570312 L 464.085938 293.839844 C 464.648438 294.117188 465.203125 294.40625 465.757812 294.691406 L 468.5 289.472656 " fill-opacity="1" fill-rule="nonzero"/><path fill="#231f20" d="M 444.980469 286.039062 L 446.757812 280.421875 C 446.625 280.371094 446.496094 280.332031 446.371094 280.296875 L 446.324219 280.289062 L 446.3125 280.285156 L 446.277344 280.269531 L 446.25 280.261719 L 446.234375 280.253906 L 446.171875 280.238281 L 446.117188 280.214844 L 446.109375 280.214844 C 445.707031 280.089844 445.289062 279.96875 444.878906 279.851562 L 443.191406 285.496094 C 443.789062 285.675781 444.382812 285.855469 444.980469 286.039062 " fill-opacity="1" fill-rule="nonzero"/><path fill="#231f20" d="M 452.34375 282.320312 C 452.253906 282.292969 452.171875 282.257812 452.089844 282.230469 L 452.054688 282.210938 L 452.050781 282.210938 C 451.53125 282.023438 451.007812 281.839844 450.488281 281.664062 L 448.546875 287.226562 C 449.136719 287.429688 449.726562 287.640625 450.3125 287.851562 L 452.34375 282.320312 " fill-opacity="1" fill-rule="nonzero"/><path fill="#231f20" d="M 413.25 273.199219 C 413.109375 273.191406 412.984375 273.179688 412.84375 273.171875 L 412.84375 273.167969 L 412.777344 273.167969 L 412.746094 273.164062 L 412.636719 273.164062 L 412.632812 273.15625 L 412.570312 273.15625 C 412.144531 273.121094 411.71875 273.097656 411.289062 273.070312 L 410.941406 278.960938 C 411.566406 278.992188 412.195312 279.035156 412.820312 279.082031 L 413.25 273.199219 " fill-opacity="1" fill-rule="nonzero"/><path fill="#231f20" d="M 430.753906 275.65625 C 430.390625 275.585938 430.03125 275.511719 429.675781 275.441406 L 429.652344 275.429688 L 429.625 275.429688 L 429.597656 275.421875 L 429.578125 275.421875 L 429.441406 275.394531 L 429.402344 275.390625 L 429.394531 275.390625 L 429.347656 275.375 L 429.34375 275.375 L 429.210938 275.34375 L 429.203125 275.34375 L 429.164062 275.335938 L 429.113281 275.332031 L 429.070312 275.324219 L 429.0625 275.316406 L 428.824219 275.273438 L 427.703125 281.058594 C 428.316406 281.183594 428.929688 281.304688 429.539062 281.433594 L 430.753906 275.65625 " fill-opacity="1" fill-rule="nonzero"/><path fill="#231f20" d="M 424.953125 274.582031 C 424.773438 274.550781 424.601562 274.53125 424.417969 274.496094 L 424.390625 274.488281 L 424.363281 274.484375 L 424.328125 274.476562 L 424.324219 274.476562 C 423.882812 274.40625 423.453125 274.339844 423.011719 274.273438 L 422.152344 280.113281 C 422.769531 280.203125 423.386719 280.296875 424 280.394531 L 424.953125 274.582031 " fill-opacity="1" fill-rule="nonzero"/><path fill="#231f20" d="M 436.492188 276.992188 C 436.382812 276.96875 436.269531 276.9375 436.15625 276.914062 L 436.148438 276.914062 L 436.09375 276.894531 L 436.0625 276.890625 L 436.03125 276.878906 L 436.015625 276.871094 L 435.957031 276.859375 L 435.953125 276.859375 L 435.902344 276.847656 L 435.890625 276.847656 L 435.847656 276.832031 L 435.832031 276.832031 L 435.777344 276.816406 L 435.667969 276.792969 L 435.609375 276.773438 L 435.582031 276.765625 L 435.566406 276.761719 L 435.527344 276.75 L 435.503906 276.742188 L 435.429688 276.730469 L 435.390625 276.722656 L 435.382812 276.722656 L 435.335938 276.699219 C 435.078125 276.648438 434.835938 276.589844 434.589844 276.523438 L 433.207031 282.257812 C 433.816406 282.398438 434.421875 282.550781 435.027344 282.703125 L 436.492188 276.992188 " fill-opacity="1" fill-rule="nonzero"/><path fill="#231f20" d="M 419.117188 273.765625 C 419.027344 273.746094 418.941406 273.738281 418.855469 273.730469 L 418.816406 273.722656 L 418.808594 273.722656 C 418.257812 273.660156 417.710938 273.601562 417.167969 273.542969 L 416.558594 279.410156 C 417.183594 279.480469 417.808594 279.539062 418.425781 279.613281 L 419.117188 273.765625 " fill-opacity="1" fill-rule="nonzero"/><path fill="#231f20" d="M 411.1875 410.628906 C 408.0625 414.070312 402.734375 414.332031 399.292969 411.207031 C 395.851562 408.078125 395.589844 402.753906 398.714844 399.308594 C 401.839844 395.867188 407.171875 395.609375 410.613281 398.730469 C 414.058594 401.863281 414.320312 407.1875 411.1875 410.628906 Z M 495.042969 308.621094 L 492.832031 306.609375 L 492.71875 306.726562 L 492.632812 306.644531 L 492.597656 306.609375 L 492.59375 306.601562 L 492.5625 306.574219 L 492.558594 306.570312 L 492.460938 306.476562 L 492.425781 306.441406 L 492.414062 306.421875 L 492.390625 306.414062 L 492.359375 306.378906 L 492.179688 306.199219 L 488.082031 310.445312 C 488.25 310.609375 488.414062 310.769531 488.578125 310.933594 L 408.464844 392.304688 C 403.832031 391.027344 398.664062 392.332031 395.21875 396.128906 C 391.910156 399.769531 391.039062 404.753906 392.484375 409.101562 L 381.914062 420.746094 L 391.472656 429.429688 L 402.042969 417.785156 C 406.511719 418.796875 411.382812 417.441406 414.691406 413.808594 C 418.113281 410.03125 418.925781 404.816406 417.253906 400.351562 L 495.042969 308.621094 " fill-opacity="1" fill-rule="nonzero"/><path fill="#231f20" d="M 402.527344 402.753906 C 401.308594 404.09375 401.410156 406.164062 402.746094 407.382812 C 404.09375 408.597656 406.164062 408.492188 407.375 407.152344 C 408.597656 405.816406 408.492188 403.742188 407.15625 402.527344 C 405.820312 401.308594 403.746094 401.40625 402.527344 402.753906 " fill-opacity="1" fill-rule="nonzero"/></svg>